<svg xmlns="http://www.w3.org/2000/svg" xmlns:xlink="http://www.w3.org/1999/xlink" width="215.528" height="79.397" viewBox="0 0 215.528 79.397">
  <defs>
    <clipPath id="clip-path">
      <rect id="Rectangle_5" data-name="Rectangle 5" width="215.528" height="79.397" fill="none"/>
    </clipPath>
  </defs>
  <g id="Group_10" data-name="Group 10" transform="translate(-296 -128)">
    <g id="Group_9" data-name="Group 9" transform="translate(296 128)">
      <g id="Group_8" data-name="Group 8" clip-path="url(#clip-path)">
        <path id="Path_299" data-name="Path 299" d="M32.3.186,53.75,55.525a10.648,10.648,0,0,0,2.868,4.369,5.422,5.422,0,0,0,2.869,1.28v1.766q-2.3-.176-5.517-.221T47.4,62.674q-3.884,0-7.237.044t-5.472.221V61.173q4.5-.176,5.737-1.545t-.529-5.869L24.36,11.836l1.589-1.942L11.827,46.522A32.937,32.937,0,0,0,9.8,53.76a7.81,7.81,0,0,0,.442,4.413,4.505,4.505,0,0,0,2.648,2.25,15.183,15.183,0,0,0,4.589.75v1.766Q14.65,62.763,12,62.718t-5.3-.044q-1.942,0-3.663.044A29.373,29.373,0,0,0,0,62.939V61.173a8.21,8.21,0,0,0,3.839-2.295A18.477,18.477,0,0,0,7.5,52.436L27.714.186q1.059.089,2.295.088T32.3.186" transform="translate(0 -0.134)" fill="#9e5d49"/>
        <path id="Path_300" data-name="Path 300" d="M205.094,80.218V78.453a11.905,11.905,0,0,0,6.222-1.942,10.832,10.832,0,0,0,3.928-6,40.192,40.192,0,0,0,1.324-11.562V10.493a17.437,17.437,0,0,0-.485-4.81A3.183,3.183,0,0,0,214.1,3.564a13.919,13.919,0,0,0-4.325-.662V1.137q2.03.089,5.428.177T222.3,1.4q3.706,0,7.281-.088t5.869-.177V2.9a13.769,13.769,0,0,0-4.368.662,3.181,3.181,0,0,0-1.942,2.118,17.367,17.367,0,0,0-.486,4.81V42.8q0,3.62-.044,7.855t-.353,8.208a39.467,39.467,0,0,1-1.1,6.972,18.631,18.631,0,0,1-7.237,10.282q-5.561,4.1-14.828,4.1" transform="translate(-148.078 -0.821)" fill="#9e5d49"/>
        <path id="Path_301" data-name="Path 301" d="M379.168,79.634a3.4,3.4,0,0,1,2.426.8,3.212,3.212,0,0,1,.85,2.444,5.529,5.529,0,0,1-.191,1.523,2.851,2.851,0,0,1-.592,1.117,2.564,2.564,0,0,1-1.022.692,4.092,4.092,0,0,1-1.471.239h-2.339V79.634Zm.077,6.054a3.814,3.814,0,0,0,.382-.024,2.132,2.132,0,0,0,.487-.115,2.226,2.226,0,0,0,.51-.262,1.725,1.725,0,0,0,.454-.468,2.632,2.632,0,0,0,.329-.74,3.9,3.9,0,0,0,.129-1.074,4.55,4.55,0,0,0-.12-1.093,2.091,2.091,0,0,0-.391-.822,1.72,1.72,0,0,0-.7-.515,2.8,2.8,0,0,0-1.06-.177h-1.528v5.29Z" transform="translate(-272.071 -57.496)" fill="#9e5d49"/>
        <path id="Path_302" data-name="Path 302" d="M420.833,79.634V80.4h-3.8v2.168h3.543v.764h-3.543v2.359h3.829v.764h-4.737V79.634Z" transform="translate(-300.443 -57.496)" fill="#9e5d49"/>
        <path id="Path_303" data-name="Path 303" d="M451.944,86.452l-2.4-6.818h.974l1.948,5.911h.019l1.967-5.911h.946l-2.426,6.818Z" transform="translate(-324.574 -57.496)" fill="#9e5d49"/>
        <path id="Path_304" data-name="Path 304" d="M493.036,79.634V80.4h-3.8v2.168h3.542v.764h-3.542v2.359h3.829v.764h-4.737V79.634Z" transform="translate(-352.574 -57.496)" fill="#9e5d49"/>
        <path id="Path_305" data-name="Path 305" d="M525.338,79.634v6.054h3.609v.764H524.43V79.634Z" transform="translate(-378.64 -57.496)" fill="#9e5d49"/>
        <path id="Path_306" data-name="Path 306" d="M557.472,81.28a3.38,3.38,0,0,1,.616-1.141,3.01,3.01,0,0,1,1.022-.793,3.563,3.563,0,0,1,2.846,0,3.009,3.009,0,0,1,1.022.793,3.374,3.374,0,0,1,.616,1.141,4.482,4.482,0,0,1,0,2.683,3.374,3.374,0,0,1-.616,1.141,2.954,2.954,0,0,1-1.022.788,3.623,3.623,0,0,1-2.846,0,2.955,2.955,0,0,1-1.022-.788,3.38,3.38,0,0,1-.616-1.141,4.482,4.482,0,0,1,0-2.683m.835,2.359a2.766,2.766,0,0,0,.42.9,2.141,2.141,0,0,0,.736.644,2.468,2.468,0,0,0,2.139,0,2.146,2.146,0,0,0,.735-.644,2.77,2.77,0,0,0,.42-.9,3.941,3.941,0,0,0,0-2.034,2.771,2.771,0,0,0-.42-.9,2.149,2.149,0,0,0-.735-.644,2.468,2.468,0,0,0-2.139,0,2.144,2.144,0,0,0-.736.644,2.766,2.766,0,0,0-.42.9,3.941,3.941,0,0,0,0,2.034" transform="translate(-402.348 -57.074)" fill="#9e5d49"/>
        <path id="Path_307" data-name="Path 307" d="M602.85,79.634a2.117,2.117,0,0,1,1.561.53,2.352,2.352,0,0,1,0,2.975,2.076,2.076,0,0,1-1.561.525h-2.081v2.788h-.907V79.634Zm-.305,3.266a1.62,1.62,0,0,0,1.131-.315,1.2,1.2,0,0,0,.358-.936,1.185,1.185,0,0,0-.358-.931,1.67,1.67,0,0,0-1.131-.32h-1.776v2.5Z" transform="translate(-433.101 -57.496)" fill="#9e5d49"/>
        <path id="Path_308" data-name="Path 308" d="M638.545,79.634l2.149,5.73,2.158-5.73h1.241v6.818h-.859V80.78h-.019l-2.13,5.672h-.773l-2.129-5.672h-.019v5.672h-.86V79.634Z" transform="translate(-460.135 -57.496)" fill="#9e5d49"/>
        <path id="Path_309" data-name="Path 309" d="M686.975,79.634V80.4h-3.8v2.168h3.542v.764h-3.542v2.359H687v.764h-4.737V79.634Z" transform="translate(-492.598 -57.496)" fill="#9e5d49"/>
        <path id="Path_310" data-name="Path 310" d="M719.3,79.634l3.59,5.529h.019V79.634h.86v6.818h-.994l-3.562-5.472h-.019v5.472h-.859V79.634Z" transform="translate(-518.639 -57.496)" fill="#9e5d49"/>
        <path id="Path_311" data-name="Path 311" d="M755.673,80.4v-.764h5.453V80.4h-2.273v6.054h-.907V80.4Z" transform="translate(-545.597 -57.496)" fill="#9e5d49"/>
        <path id="Path_312" data-name="Path 312" d="M385.388,13.446a4.878,4.878,0,0,1-1.909.4,6.789,6.789,0,0,1-2.733-.528,5.854,5.854,0,0,1-2.048-1.455,6.45,6.45,0,0,1-1.279-2.178,8,8,0,0,1-.445-2.7,8.27,8.27,0,0,1,.445-2.752A6.625,6.625,0,0,1,378.7,2.021,5.847,5.847,0,0,1,380.746.538,6.68,6.68,0,0,1,383.479,0a6.423,6.423,0,0,1,1.974.306,5.585,5.585,0,0,1,1.723.9,4.858,4.858,0,0,1,1.881,3.466h-2.78a2.785,2.785,0,0,0-1-1.668,2.909,2.909,0,0,0-1.8-.556,3.4,3.4,0,0,0-1.667.38A3.15,3.15,0,0,0,380.7,3.846a4.468,4.468,0,0,0-.621,1.455,7.219,7.219,0,0,0-.195,1.686,6.712,6.712,0,0,0,.195,1.621,4.374,4.374,0,0,0,.621,1.418,3.175,3.175,0,0,0,1.112,1.01,3.4,3.4,0,0,0,1.667.38,3.158,3.158,0,0,0,2.233-.732,3.183,3.183,0,0,0,.918-2.122H383.7V6.394h5.56v7.153h-1.853l-.3-1.5a4.359,4.359,0,0,1-1.723,1.4" transform="translate(-272.177 -0.001)" fill="#9e5d49"/>
        <path id="Path_313" data-name="Path 313" d="M444.623,1.135l4.948,13.231h-3.021l-1-2.946H440.6l-1.038,2.946h-2.928l5-13.231Zm.167,8.116L443.122,4.4h-.037l-1.724,4.855Z" transform="translate(-315.252 -0.819)" fill="#9e5d49"/>
        <path id="Path_314" data-name="Path 314" d="M506.433,1.135a4.265,4.265,0,0,1,1.6.287,3.682,3.682,0,0,1,1.223.788,3.42,3.42,0,0,1,.778,1.158,3.726,3.726,0,0,1,.269,1.418,3.98,3.98,0,0,1-.491,2.02,3.085,3.085,0,0,1-1.6,1.3V8.14a2.248,2.248,0,0,1,.89.454,2.525,2.525,0,0,1,.575.723,3.389,3.389,0,0,1,.324.917,8.032,8.032,0,0,1,.139,1c.012.21.025.457.037.741s.034.575.065.871a5.8,5.8,0,0,0,.148.843,1.938,1.938,0,0,0,.306.677h-2.909a5.123,5.123,0,0,1-.3-1.5q-.055-.87-.167-1.667a2.627,2.627,0,0,0-.63-1.52,2.165,2.165,0,0,0-1.575-.482h-2.91v5.17H499.3V1.135ZM505.4,7.12a2.2,2.2,0,0,0,1.5-.445,1.847,1.847,0,0,0,.5-1.446,1.762,1.762,0,0,0-.5-1.4,2.232,2.232,0,0,0-1.5-.436h-3.187V7.12Z" transform="translate(-360.495 -0.819)" fill="#9e5d49"/>
        <path id="Path_315" data-name="Path 315" d="M565.772,13.446a4.878,4.878,0,0,1-1.909.4,6.789,6.789,0,0,1-2.733-.528,5.854,5.854,0,0,1-2.048-1.455A6.45,6.45,0,0,1,557.8,9.684a8,8,0,0,1-.445-2.7,8.271,8.271,0,0,1,.445-2.752,6.625,6.625,0,0,1,1.279-2.215A5.847,5.847,0,0,1,561.13.538,6.679,6.679,0,0,1,563.863,0a6.423,6.423,0,0,1,1.974.306,5.586,5.586,0,0,1,1.723.9,4.858,4.858,0,0,1,1.881,3.466h-2.78a2.785,2.785,0,0,0-1-1.668,2.909,2.909,0,0,0-1.8-.556,3.4,3.4,0,0,0-1.667.38,3.151,3.151,0,0,0-1.112,1.019,4.468,4.468,0,0,0-.621,1.455,7.219,7.219,0,0,0-.195,1.686,6.712,6.712,0,0,0,.195,1.621,4.374,4.374,0,0,0,.621,1.418,3.175,3.175,0,0,0,1.112,1.01,3.4,3.4,0,0,0,1.667.38,3.158,3.158,0,0,0,2.233-.732,3.183,3.183,0,0,0,.918-2.122h-2.928V6.394h5.56v7.153h-1.853l-.3-1.5a4.359,4.359,0,0,1-1.723,1.4" transform="translate(-402.414 -0.001)" fill="#9e5d49"/>
        <path id="Path_316" data-name="Path 316" d="M625.008,1.135l4.948,13.231h-3.021l-1-2.946h-4.948l-1.038,2.946h-2.928l5-13.231Zm.167,8.116L623.507,4.4h-.037l-1.724,4.855Z" transform="translate(-445.491 -0.819)" fill="#9e5d49"/>
        <path id="Path_317" data-name="Path 317" d="M679.739,10.285a2.094,2.094,0,0,0,.639.75,2.762,2.762,0,0,0,.935.426,4.428,4.428,0,0,0,1.112.139,5.776,5.776,0,0,0,.834-.065,2.891,2.891,0,0,0,.834-.25,1.818,1.818,0,0,0,.648-.51,1.277,1.277,0,0,0,.26-.825,1.163,1.163,0,0,0-.343-.871,2.715,2.715,0,0,0-.9-.556,8.916,8.916,0,0,0-1.26-.389q-.7-.167-1.427-.371a12.473,12.473,0,0,1-1.446-.454,4.94,4.94,0,0,1-1.26-.695,3.269,3.269,0,0,1-.9-1.066A3.232,3.232,0,0,1,677.125,4a3.463,3.463,0,0,1,.436-1.77A3.933,3.933,0,0,1,678.7.982a4.974,4.974,0,0,1,1.594-.741A6.788,6.788,0,0,1,682.074,0a8.427,8.427,0,0,1,1.992.232,4.985,4.985,0,0,1,1.7.751,3.8,3.8,0,0,1,1.176,1.325,4.061,4.061,0,0,1,.435,1.955h-2.817a2.345,2.345,0,0,0-.25-.982,1.639,1.639,0,0,0-.565-.611,2.4,2.4,0,0,0-.806-.315,4.989,4.989,0,0,0-.991-.093,3.419,3.419,0,0,0-.7.074,1.884,1.884,0,0,0-.639.259,1.606,1.606,0,0,0-.473.463,1.245,1.245,0,0,0-.185.7,1.188,1.188,0,0,0,.148.63,1.324,1.324,0,0,0,.584.445,7.389,7.389,0,0,0,1.2.408q.769.2,2.011.519.37.074,1.028.269a4.925,4.925,0,0,1,1.307.62,3.956,3.956,0,0,1,1.121,1.14,3.242,3.242,0,0,1,.473,1.825,4.048,4.048,0,0,1-.352,1.686,3.665,3.665,0,0,1-1.047,1.344,5.033,5.033,0,0,1-1.723.88,8.156,8.156,0,0,1-2.382.315,8.351,8.351,0,0,1-2.122-.269,5.318,5.318,0,0,1-1.816-.843,4.154,4.154,0,0,1-1.251-1.464,4.365,4.365,0,0,1-.445-2.112H679.5a2.425,2.425,0,0,0,.241,1.13" transform="translate(-488.565 0)" fill="#9e5d49"/>
        <path id="Path_318" data-name="Path 318" d="M737.854,1.134V6.212h5.356V1.134h2.91V14.365h-2.91V8.658h-5.356v5.708h-2.909V1.134Z" transform="translate(-530.631 -0.819)" fill="#9e5d49"/>
        <path id="Path_319" data-name="Path 319" d="M415.1,142.489a10.844,10.844,0,0,1-.765,2.964c-.564.125-9.333.188-9.905.188a4.619,4.619,0,0,1-1.489-.215,9.179,9.179,0,0,1-1.006-.469,1.039,1.039,0,0,0-.342.195,2.622,2.622,0,0,1-.462.274c-.823.206-9.834.309-10.63.309a8.972,8.972,0,0,1-1.3-.094,4.783,4.783,0,0,1-.335,1.287,6.647,6.647,0,0,1-.55,1.234q-1.879,2.978-6.841,2.978a4.358,4.358,0,0,1-2.9-.966,3.369,3.369,0,0,1-1.22-2.724,11.648,11.648,0,0,1,.684-3.112q.791-2.427,1.488-2.427c.036,0,.054.027.054.081a10.7,10.7,0,0,1-.63,1.663,6.47,6.47,0,0,0-.63,2.147q0,3.407,4.01,3.406a10.393,10.393,0,0,0,3.152-.657q2.59-.872,2.589-2.092a5.654,5.654,0,0,0-.711-2.63q-.3-.5-.885-1.488.389-.846.993-2.173a12.041,12.041,0,0,1,1.127,2.253,2.621,2.621,0,0,0,.764,1.248c.384.072,9.074.108,9.664.108a19.709,19.709,0,0,0,2.709-.2c.063.045.1-.049.121-.281a10.463,10.463,0,0,0,0-1.061q-.04-.657,1.864-2.146-.228.859-.8,3.166,0,.256.644.3c.358.1,9.3.147,10.415.147q-.081-.6-.4-1.959-.108-.2.577-.9a7.31,7.31,0,0,0,.952-1.1Zm-9.5-5.023-.832,1.543-2.186-1.234-.671,1.127-2.28-1.262.912-1.675,2.334,1.448.657-1.234Zm-2.226-3.46-.912,1.677-2.253-1.287.885-1.517Z" transform="translate(-272.45 -95.939)" fill="#9e5d49"/>
        <path id="Path_320" data-name="Path 320" d="M542.62,139.152H519.948q-.389-7.083-.993-13.495.416-.549,1.288-1.729l.631,7.417a44.966,44.966,0,0,0,.63,5.338,2.186,2.186,0,0,0,.174.188,1.39,1.39,0,0,0,1.047.309h19.9Z" transform="translate(-374.687 -89.476)" fill="#9e5d49"/>
        <path id="Path_321" data-name="Path 321" d="M563,139.405q-.443,3.328-1.127,3.327H533.862v-1.971H561.9a9.416,9.416,0,0,0-.255-1.932,4.354,4.354,0,0,0-.55-1.476l-.925,1.181a3.3,3.3,0,0,1-2.227.738,2.962,2.962,0,0,1-1.408-.43q-.885-.5-.872-1.086a5.139,5.139,0,0,1,1.6-2.83q1.663-1.877,2.964-1.864,1.1.013,2.012,2.7a11.8,11.8,0,0,1,.765,3.648m-3.032-9.016-.9,1.623-2.28-1.289-.711,1.181-2.307-1.341.979-1.677,2.36,1.449.671-1.235Zm.858,6.441a4.241,4.241,0,0,0-.8-1.248q-.7-.819-1.14-.765a2.582,2.582,0,0,0-.979.578,2.113,2.113,0,0,0-.7.858c-.018.178.108.361.375.55l.658.322a1.583,1.583,0,0,0,.6.081,4.416,4.416,0,0,0,1.985-.375" transform="translate(-385.45 -93.057)" fill="#9e5d49"/>
        <path id="Path_322" data-name="Path 322" d="M638.811,162.7h-.63a2.218,2.218,0,0,1-1.878-.939,7.745,7.745,0,0,1-1.731,4.158q-1.8,2.548-3.232,2.548a8.338,8.338,0,0,1-3.193-.952q-1.905-.886-1.865-1.074a.258.258,0,0,1,.268-.228,5.846,5.846,0,0,1,1.208.456,4.378,4.378,0,0,0,1.65.456q1.408,0,3.742-2.226t2.334-3.594a24.857,24.857,0,0,0-2.039-2.83l1.074-1.932q.455.724,1.65,2.508,1.193,1.678,2.28,1.677h.362Z" transform="translate(-452.177 -113.025)" fill="#9e5d49"/>
        <path id="Path_323" data-name="Path 323" d="M699.087,139.405q-.443,3.328-1.127,3.327H669.949v-1.971h28.038a9.419,9.419,0,0,0-.255-1.932,4.357,4.357,0,0,0-.55-1.476l-.925,1.181a3.3,3.3,0,0,1-2.226.738,2.962,2.962,0,0,1-1.408-.43q-.885-.5-.872-1.086a5.139,5.139,0,0,1,1.6-2.83q1.663-1.877,2.964-1.864,1.1.013,2.012,2.7a11.794,11.794,0,0,1,.765,3.648m-3.032-9.016-.9,1.623-2.28-1.289-.711,1.181-2.307-1.341.979-1.677,2.36,1.449.671-1.235Zm.858,6.441a4.245,4.245,0,0,0-.8-1.248q-.7-.819-1.14-.765a2.582,2.582,0,0,0-.979.578,2.112,2.112,0,0,0-.7.858q-.027.267.375.55l.658.322a1.582,1.582,0,0,0,.6.081,4.417,4.417,0,0,0,1.985-.375" transform="translate(-483.705 -93.057)" fill="#9e5d49"/>
        <path id="Path_324" data-name="Path 324" d="M465.012,231.711h-.39a1.374,1.374,0,0,1-1.163-.582,4.8,4.8,0,0,1-1.072,2.575q-1.113,1.578-2,1.578a5.163,5.163,0,0,1-1.977-.589q-1.18-.549-1.154-.665a.159.159,0,0,1,.166-.141,3.63,3.63,0,0,1,.748.282,2.714,2.714,0,0,0,1.022.282,4,4,0,0,0,2.318-1.379q1.445-1.379,1.446-2.226a15.462,15.462,0,0,0-1.263-1.753l.665-1.2q.282.449,1.022,1.553.739,1.039,1.412,1.039h.224Z" transform="translate(-330.138 -164.543)" fill="#9e5d49"/>
        <path id="Path_325" data-name="Path 325" d="M500.316,227.4a10.66,10.66,0,0,1-.374,2.027H484.3V228.2h15.321a4.719,4.719,0,0,0-.831-2.235q.183-.357.648-1.238a5.611,5.611,0,0,1,.507,1.022,4.454,4.454,0,0,1,.374,1.645" transform="translate(-349.664 -162.256)" fill="#9e5d49"/>
        <path id="Path_326" data-name="Path 326" d="M543.515,230.742h-.557a4.177,4.177,0,0,1-.856,2.143q-.964,1.462-1.985,1.462a7.444,7.444,0,0,1-1.7-.374q-1.346-.4-1.346-.632c0-.077.058-.116.175-.116a3.6,3.6,0,0,1,.852.187,3.586,3.586,0,0,0,.951.187,3.364,3.364,0,0,0,2.052-1,4.265,4.265,0,0,0,1.4-1.853,11.147,11.147,0,0,1-1.346-.05q-1.2-.191-1.2-1.262a4.138,4.138,0,0,1,.507-1.711q.574-1.164,1.163-1.163.449,0,.872.747a5.045,5.045,0,0,1,.54,2.218h.474Zm-1.138-1.446a1.732,1.732,0,0,0-.232-.814.98.98,0,0,0-.756-.582q-.274-.025-.611.357a1.091,1.091,0,0,0-.336.665q.357.573,1.545.573c.26,0,.39-.066.39-.2" transform="translate(-387.765 -163.573)" fill="#9e5d49"/>
        <path id="Path_327" data-name="Path 327" d="M581.511,216.807H559.42v-1.221h13.435a2.043,2.043,0,0,0,.573-.1.893.893,0,0,0,.5-.282.414.414,0,0,0,.083-.316l-.548-5.45a.506.506,0,0,1-.282-.714l.681-1.188c.122-.217.211-.308.266-.275.072.039.108.083.108.133a.6.6,0,0,1-.063.216.605.605,0,0,0-.062.216.255.255,0,0,0,.158.233q.382.233,1.1.581l-.731,1.462-.108-.05a.254.254,0,0,0-.1-.033l.208,2.276a6.215,6.215,0,0,1-.374,2.809,10.368,10.368,0,0,0,1.927-1.284,5.407,5.407,0,0,1,2.475-1.284,2.288,2.288,0,0,1,1.4.7,2.049,2.049,0,0,1,.847,1.461,3.291,3.291,0,0,1-.3.889h.9Zm-1.5-1.578q0-.325-.764-.923h.017a2.1,2.1,0,0,0-1.3-.532,2.954,2.954,0,0,0-1.719.839,4.447,4.447,0,0,1-1.512.972h4.137q1.138,0,1.138-.357" transform="translate(-403.902 -149.639)" fill="#9e5d49"/>
        <path id="Path_328" data-name="Path 328" d="M559.98,221.669a10.657,10.657,0,0,1-.374,2.027H543.961v-1.221h15.321a4.718,4.718,0,0,0-.831-2.235q.183-.357.648-1.238a5.607,5.607,0,0,1,.507,1.022,4.455,4.455,0,0,1,.374,1.645m0-3.95-.573.955-1.362-.805-.424.747-1.4-.831.573-.989,1.313.823.456-.748Zm-48.18,7.936-.573.955-1.362-.805-.424.748-1.4-.831.573-.989,1.313.823.456-.748Z" transform="translate(-366.81 -156.528)" fill="#9e5d49"/>
      </g>
    </g>
  </g>
</svg>
