<svg xmlns="http://www.w3.org/2000/svg" width="23.75" height="16.699" viewBox="0 0 23.75 16.699">
  <g id="mail" transform="translate(0 -76)">
    <g id="Group_18" data-name="Group 18" transform="translate(0 76)">
      <path id="Path_408" data-name="Path 408" d="M21.663,76H2.087A2.091,2.091,0,0,0,0,78.087V90.612A2.091,2.091,0,0,0,2.087,92.7H21.663a2.09,2.09,0,0,0,2.087-2.087V78.087A2.089,2.089,0,0,0,21.663,76Zm-.292,1.392-8.019,7.977a2.087,2.087,0,0,1-2.953,0L2.38,77.392ZM1.392,90.329V78.372l6.013,5.982Zm.989.979,6.011-5.973,1.023,1.018a3.479,3.479,0,0,0,4.919,0l1.025-1.019,6.011,5.973Zm19.978-.979-6.013-5.975,6.013-5.982Z" transform="translate(0 -76)" fill="#fff"/>
    </g>
  </g>
</svg>
